<svg xmlns="http://www.w3.org/2000/svg" xmlns:xlink="http://www.w3.org/1999/xlink" width="500" zoomAndPan="magnify" viewBox="0 0 375 374.999991" height="500" preserveAspectRatio="xMidYMid meet" version="1.0"><defs><g/><clipPath id="fb3f0e1287"><path d="M 104.175781 44.621094 L 270.675781 44.621094 L 270.675781 268.871094 L 104.175781 268.871094 Z M 104.175781 44.621094 " clip-rule="nonzero"/></clipPath></defs><g clip-path="url(#fb3f0e1287)"><path fill="#222a34" d="M 159.730469 204.949219 L 159.730469 140.800781 L 104.191406 108.726562 L 104.191406 236.984375 Z M 215.265625 44.621094 L 159.730469 76.695312 L 215.265625 108.726562 L 215.265625 172.875 L 159.730469 204.949219 L 215.265625 236.984375 L 270.804688 269.058594 L 270.804688 204.949219 L 215.265625 172.875 L 270.804688 140.800781 L 270.804688 76.695312 Z M 215.265625 44.621094 " fill-opacity="1" fill-rule="evenodd"/></g><g fill="#222a34" fill-opacity="1"><g transform="translate(136.652219, 305.941116)"><g><path d="M 2.15625 -29.71875 L 12.796875 -29.71875 C 15.648438 -29.71875 17.976562 -28.957031 19.78125 -27.4375 C 21.582031 -25.914062 22.484375 -23.734375 22.484375 -20.890625 C 22.484375 -18.710938 21.9375 -16.882812 20.84375 -15.40625 C 19.75 -13.925781 18.265625 -12.882812 16.390625 -12.28125 L 26.625 0 L 18.015625 0 L 8.9375 -11.75 L 8.9375 0 L 2.15625 0 Z M 8.9375 -16.53125 L 9.734375 -16.53125 C 10.359375 -16.53125 10.882812 -16.539062 11.3125 -16.5625 C 11.75 -16.59375 12.242188 -16.679688 12.796875 -16.828125 C 13.347656 -16.972656 13.789062 -17.175781 14.125 -17.4375 C 14.457031 -17.695312 14.742188 -18.078125 14.984375 -18.578125 C 15.222656 -19.085938 15.34375 -19.703125 15.34375 -20.421875 C 15.34375 -21.148438 15.222656 -21.765625 14.984375 -22.265625 C 14.742188 -22.773438 14.457031 -23.160156 14.125 -23.421875 C 13.789062 -23.679688 13.347656 -23.882812 12.796875 -24.03125 C 12.242188 -24.175781 11.75 -24.257812 11.3125 -24.28125 C 10.882812 -24.3125 10.359375 -24.328125 9.734375 -24.328125 L 8.9375 -24.328125 Z M 8.9375 -16.53125 "/></g></g></g><g fill="#222a34" fill-opacity="1"><g transform="translate(164.710466, 305.941116)"><g><path d="M 8.9375 -29.71875 L 8.9375 0 L 2.15625 0 L 2.15625 -29.71875 Z M 8.9375 -29.71875 "/></g></g></g><g fill="#222a34" fill-opacity="1"><g transform="translate(178.073702, 305.941116)"><g><path d="M 17.265625 -29.71875 L 29.25 0 L 21.984375 0 L 19.78125 -5.9375 L 8.46875 -5.9375 L 6.265625 0 L -1.015625 0 L 10.984375 -29.71875 Z M 17.46875 -11.890625 L 14.15625 -20.53125 L 14.09375 -20.53125 L 10.765625 -11.890625 Z M 17.46875 -11.890625 "/></g></g></g><g fill="#222a34" fill-opacity="1"><g transform="translate(208.581124, 305.941116)"><g><path d="M 8.9375 -18.453125 L 8.9375 0 L 2.15625 0 L 2.15625 -29.71875 L 8.9375 -29.71875 L 20.75 -11.28125 L 20.828125 -11.28125 L 20.828125 -29.71875 L 27.59375 -29.71875 L 27.59375 0 L 20.828125 0 L 9 -18.453125 Z M 8.9375 -18.453125 "/></g></g></g><g fill="#222a34" fill-opacity="1"><g transform="translate(118.8806, 326.26765)"><g><path d="M 0.90625 -10.515625 L 7.140625 -10.515625 L 7.140625 -8.6875 L 2.96875 -8.6875 L 2.96875 -6.09375 L 6.8125 -6.09375 L 6.8125 -4.25 L 2.96875 -4.25 L 2.96875 0 L 0.90625 0 Z M 0.90625 -10.515625 "/></g></g></g><g fill="#222a34" fill-opacity="1"><g transform="translate(134.192531, 326.26765)"><g><path d="M 6.609375 -10.515625 L 8.5625 -10.515625 L 8.5625 -3.734375 C 8.5625 -3.046875 8.472656 -2.457031 8.296875 -1.96875 C 8.117188 -1.476562 7.867188 -1.070312 7.546875 -0.75 C 7.222656 -0.425781 6.832031 -0.1875 6.375 -0.03125 C 5.914062 0.113281 5.410156 0.1875 4.859375 0.1875 C 2.191406 0.1875 0.859375 -1.03125 0.859375 -3.46875 L 0.859375 -10.515625 L 2.921875 -10.515625 L 2.921875 -3.875 C 2.921875 -3.46875 2.957031 -3.117188 3.03125 -2.828125 C 3.101562 -2.546875 3.21875 -2.316406 3.375 -2.140625 C 3.539062 -1.960938 3.742188 -1.835938 3.984375 -1.765625 C 4.222656 -1.691406 4.503906 -1.65625 4.828125 -1.65625 C 5.453125 -1.65625 5.90625 -1.828125 6.1875 -2.171875 C 6.46875 -2.523438 6.609375 -3.09375 6.609375 -3.875 Z M 6.609375 -10.515625 "/></g></g></g><g fill="#222a34" fill-opacity="1"><g transform="translate(151.291676, 326.26765)"><g><path d="M 7.5625 0 L 0.90625 0 L 0.90625 -10.515625 L 2.96875 -10.515625 L 2.96875 -1.828125 L 7.5625 -1.828125 Z M 7.5625 0 "/></g></g></g><g fill="#222a34" fill-opacity="1"><g transform="translate(166.693724, 326.26765)"><g><path d="M 7.5625 0 L 0.90625 0 L 0.90625 -10.515625 L 2.96875 -10.515625 L 2.96875 -1.828125 L 7.5625 -1.828125 Z M 7.5625 0 "/></g></g></g><g fill="#222a34" fill-opacity="1"><g transform="translate(182.095772, 326.26765)"><g><path d="M 5.4375 -2.828125 C 5.4375 -3.148438 5.316406 -3.410156 5.078125 -3.609375 C 4.847656 -3.804688 4.554688 -3.988281 4.203125 -4.15625 C 3.847656 -4.320312 3.460938 -4.492188 3.046875 -4.671875 C 2.628906 -4.847656 2.242188 -5.0625 1.890625 -5.3125 C 1.535156 -5.570312 1.238281 -5.890625 1 -6.265625 C 0.757812 -6.648438 0.640625 -7.132812 0.640625 -7.71875 C 0.640625 -8.238281 0.722656 -8.6875 0.890625 -9.0625 C 1.066406 -9.4375 1.3125 -9.75 1.625 -10 C 1.945312 -10.25 2.320312 -10.429688 2.75 -10.546875 C 3.175781 -10.671875 3.65625 -10.734375 4.1875 -10.734375 C 4.800781 -10.734375 5.378906 -10.679688 5.921875 -10.578125 C 6.460938 -10.472656 6.910156 -10.316406 7.265625 -10.109375 L 6.609375 -8.390625 C 6.390625 -8.523438 6.054688 -8.648438 5.609375 -8.765625 C 5.171875 -8.878906 4.695312 -8.9375 4.1875 -8.9375 C 3.707031 -8.9375 3.335938 -8.84375 3.078125 -8.65625 C 2.828125 -8.46875 2.703125 -8.210938 2.703125 -7.890625 C 2.703125 -7.585938 2.816406 -7.335938 3.046875 -7.140625 C 3.285156 -6.941406 3.582031 -6.753906 3.9375 -6.578125 C 4.300781 -6.410156 4.691406 -6.234375 5.109375 -6.046875 C 5.523438 -5.867188 5.910156 -5.648438 6.265625 -5.390625 C 6.617188 -5.140625 6.910156 -4.828125 7.140625 -4.453125 C 7.378906 -4.078125 7.5 -3.609375 7.5 -3.046875 C 7.5 -2.484375 7.40625 -2 7.21875 -1.59375 C 7.03125 -1.1875 6.769531 -0.847656 6.4375 -0.578125 C 6.101562 -0.316406 5.695312 -0.125 5.21875 0 C 4.75 0.132812 4.226562 0.203125 3.65625 0.203125 C 2.90625 0.203125 2.242188 0.132812 1.671875 0 C 1.097656 -0.132812 0.675781 -0.273438 0.40625 -0.421875 L 1.0625 -2.171875 C 1.175781 -2.117188 1.320312 -2.054688 1.5 -1.984375 C 1.675781 -1.910156 1.875 -1.84375 2.09375 -1.78125 C 2.3125 -1.726562 2.539062 -1.679688 2.78125 -1.640625 C 3.03125 -1.597656 3.285156 -1.578125 3.546875 -1.578125 C 4.160156 -1.578125 4.628906 -1.675781 4.953125 -1.875 C 5.273438 -2.082031 5.4375 -2.398438 5.4375 -2.828125 Z M 5.4375 -2.828125 "/></g></g></g><g fill="#222a34" fill-opacity="1"><g transform="translate(197.738116, 326.26765)"><g><path d="M 8.375 -8.6875 L 5.3125 -8.6875 L 5.3125 0 L 3.25 0 L 3.25 -8.6875 L 0.171875 -8.6875 L 0.171875 -10.515625 L 8.375 -10.515625 Z M 8.375 -8.6875 "/></g></g></g><g fill="#222a34" fill-opacity="1"><g transform="translate(213.951161, 326.26765)"><g><path d="M 6.09375 -2.328125 L 2.859375 -2.328125 L 2.0625 0 L 0 0 L 3.78125 -10.59375 L 5.3125 -10.59375 L 9.09375 0 L 6.921875 0 Z M 3.375 -3.984375 L 5.640625 -3.984375 L 4.859375 -6.328125 L 4.546875 -7.984375 L 4.46875 -7.984375 L 4.15625 -6.3125 Z M 3.375 -3.984375 "/></g></g></g><g fill="#222a34" fill-opacity="1"><g transform="translate(230.719899, 326.26765)"><g><path d="M 8.03125 -0.4375 C 7.707031 -0.207031 7.296875 -0.046875 6.796875 0.046875 C 6.304688 0.148438 5.800781 0.203125 5.28125 0.203125 C 4.644531 0.203125 4.039062 0.109375 3.46875 -0.078125 C 2.90625 -0.273438 2.410156 -0.59375 1.984375 -1.03125 C 1.554688 -1.46875 1.210938 -2.03125 0.953125 -2.71875 C 0.703125 -3.414062 0.578125 -4.265625 0.578125 -5.265625 C 0.578125 -6.296875 0.71875 -7.160156 1 -7.859375 C 1.28125 -8.554688 1.648438 -9.113281 2.109375 -9.53125 C 2.566406 -9.957031 3.078125 -10.265625 3.640625 -10.453125 C 4.203125 -10.640625 4.765625 -10.734375 5.328125 -10.734375 C 5.921875 -10.734375 6.425781 -10.691406 6.84375 -10.609375 C 7.257812 -10.523438 7.601562 -10.429688 7.875 -10.328125 L 7.46875 -8.578125 C 7.238281 -8.691406 6.960938 -8.773438 6.640625 -8.828125 C 6.328125 -8.878906 5.945312 -8.90625 5.5 -8.90625 C 4.664062 -8.90625 3.992188 -8.609375 3.484375 -8.015625 C 2.984375 -7.421875 2.734375 -6.503906 2.734375 -5.265625 C 2.734375 -4.722656 2.789062 -4.226562 2.90625 -3.78125 C 3.03125 -3.332031 3.210938 -2.953125 3.453125 -2.640625 C 3.703125 -2.328125 4.007812 -2.082031 4.375 -1.90625 C 4.75 -1.726562 5.175781 -1.640625 5.65625 -1.640625 C 6.101562 -1.640625 6.484375 -1.679688 6.796875 -1.765625 C 7.109375 -1.859375 7.378906 -1.976562 7.609375 -2.125 Z M 8.03125 -0.4375 "/></g></g></g><g fill="#222a34" fill-opacity="1"><g transform="translate(246.797774, 326.26765)"><g><path d="M 3.5 -4.5 L 2.96875 -4.5 L 2.96875 0 L 0.90625 0 L 0.90625 -10.515625 L 2.96875 -10.515625 L 2.96875 -5.859375 L 3.4375 -6.078125 L 6.34375 -10.515625 L 8.6875 -10.515625 L 5.625 -6.109375 L 4.8125 -5.53125 L 5.65625 -4.9375 L 9.15625 0 L 6.609375 0 Z M 3.5 -4.5 "/></g></g></g></svg>