<svg xmlns="http://www.w3.org/2000/svg" xmlns:xlink="http://www.w3.org/1999/xlink" width="500" zoomAndPan="magnify" viewBox="0 0 375 374.999991" height="500" preserveAspectRatio="xMidYMid meet" version="1.0"><defs><clipPath id="77ebfc5341"><path d="M 5.710938 5.710938 L 369.289062 5.710938 L 369.289062 369.289062 L 5.710938 369.289062 Z M 5.710938 5.710938 " clip-rule="nonzero"/></clipPath><clipPath id="8c33a703cd"><path d="M 187.5 5.710938 C 87.101562 5.710938 5.710938 87.101562 5.710938 187.5 C 5.710938 287.898438 87.101562 369.289062 187.5 369.289062 C 287.898438 369.289062 369.289062 287.898438 369.289062 187.5 C 369.289062 87.101562 287.898438 5.710938 187.5 5.710938 Z M 187.5 5.710938 " clip-rule="nonzero"/></clipPath><clipPath id="8dddea1715"><path d="M 67.792969 31.261719 L 288 31.261719 L 288 327.511719 L 67.792969 327.511719 Z M 67.792969 31.261719 " clip-rule="nonzero"/></clipPath></defs><g clip-path="url(#77ebfc5341)"><g clip-path="url(#8c33a703cd)"><path fill="#e4f7ff" d="M 5.710938 5.710938 L 369.289062 5.710938 L 369.289062 369.289062 L 5.710938 369.289062 Z M 5.710938 5.710938 " fill-opacity="1" fill-rule="nonzero"/></g></g><g clip-path="url(#8dddea1715)"><path fill="#222a34" d="M 141.203125 243.140625 L 141.203125 158.367188 L 67.808594 115.980469 L 67.808594 285.476562 Z M 214.601562 31.261719 L 141.203125 73.648438 L 214.601562 115.980469 L 214.601562 200.753906 L 141.203125 243.140625 L 214.601562 285.476562 L 287.996094 327.863281 L 287.996094 243.140625 L 214.601562 200.753906 L 287.996094 158.367188 L 287.996094 73.648438 Z M 214.601562 31.261719 " fill-opacity="1" fill-rule="evenodd"/></g></svg>